<?xml version="1.0" standalone="no"?><!DOCTYPE svg PUBLIC "-//W3C//DTD SVG 1.1//EN" "http://www.w3.org/Graphics/SVG/1.1/DTD/svg11.dtd"><svg t="1567733675755" class="icon" viewBox="0 0 1024 1024" version="1.1" xmlns="http://www.w3.org/2000/svg" p-id="2187" xmlns:xlink="http://www.w3.org/1999/xlink" width="200" height="200"><defs><style type="text/css"></style></defs><path d="M606.52 674.33c-29-9-52-30-37-74 23-43 68.83-22.26 92 13 23 35 35 53 26 142-6 37-33 77-39 87s36-53 41-74c2.14-9 29-97-10-178-31-58-81-113-134-131s-75-26-149-18c15-9 33-16 88-12 94 14 157 44 216 156 22 59 13.47 73.78 17 102 3 24 14-47 15-57 0.7-7 9-25 6 10-2.91 33.93-37 125-37 125s32-32 53-144c16.91-90.21-21-227-95-308s-169-148-371-128c12-17 67-16 108-21 72-1 227 43 310 161 45 64 79 131 79 248-4 36 17-57 20-87s15 12 15 12-48 229-120 304c23-17 49-66 58-81 11.56-19.27 25-65 53-43 15 14-8 37-14 40 5-12 7-30-5-21s-59 94-90 118c-48 42-158 119-173 113 81-42 115-97 129-129s26-129-32-171c0 0-28-12-33 24 1 16 13 22 13 22z" p-id="2188" fill="#e1da2b"></path><path d="M373.44 422.57a3.87 3.87 0 0 1-3.43-5.26c1.5-3.78 4.36-8.69 9.51-11 8.17-3.63 47.65 1 54.87 1.86a3.86 3.86 0 0 1 2 0.87l7.11 5.93a3.87 3.87 0 0 1-0.42 6.26c-3.07 1.92-6.9 4.08-8.57 4.08-2.51 0.02-46.17-2.04-61.07-2.74zM445.44 402.26a3.81 3.81 0 0 1-1.52-6.33l5.6-5.6s1-3 21-2 37 11 43 15a23.67 23.67 0 0 1 6.77 7.54 3.81 3.81 0 0 1-2.39 5.64c-4.84 1.18-12.17 2.83-15.38 2.83-4.01-0.01-42.19-12.25-57.08-17.08zM545.48 406.18a3.7 3.7 0 0 1 0.63-5.84c3.14-1.9 8.61-4 17.41-4 19 0 57 44 58 50 0.52 3.12 5 16 3 17s-18-2-21-3c-2.59-0.87-46.19-42.74-58.04-54.16zM627.41 420.53a3.67 3.67 0 0 1 3.78-4.91c7.67 0.65 21.09 2.78 27.33 9.71 8 7 29 66 30 73s-3 29-6 30-22-14-24-21c-1.7-5.94-24.34-68.22-31.11-86.8zM702.52 512.33c3-2 28 8 32 16 6 10 17 85 14 94s-10 18-10 18-18-16-19-20-17-108-17-108zM333.17 460.36a3.87 3.87 0 0 1 2.37-5.6c10.81-3 41.52-16.54 54-17.43 9.21-0.66 11.06 3.44 11.25 6.33a3.87 3.87 0 0 1-2 3.65c-7.8 4.24-39.27 20.77-53.23 19-7.74-0.94-11.04-3.52-12.39-5.95zM428.34 466.87a3.31 3.31 0 0 1 1.94-5.47c14.42-2.33 51.63-8.26 61.24-9.06 12-1 18 4 18 5s-4 11-14 14-45 10-53 7c-4.89-1.84-10.52-7.42-14.18-11.47zM518.21 472.2a3 3 0 0 1 3.92-2.78c14.77 4.44 70.06 21 74.39 21.91 5 1 14 15 16 17s-10 8-23 8-52-16-63-21c-8.1-3.68-8.61-16.58-8.31-23.13zM595.52 524.33c4 0 62 29 66 31s23 35 23 35-13 4-34-8-53-26-55-31 0-27 0-27zM187.37 206.8a3.5 3.5 0 0 1 2.36-4.37c16.66-5 66.5-23.17 75.79-24.1 10-1 29-3.66 29 1.67s-4.91 14.16-17.63 26a3.61 3.61 0 0 1-0.79 0.56c-15.19 7.87-47.75 12.81-66.57 16.77-14.42 3.04-20.2-10.04-22.16-16.53zM245.63 152.73a3.37 3.37 0 0 1-2.67-5c3.85-6.83 11.7-18.95 19.55-20.38 11-2 73 2 83 4s19 12 19 17-18 13-26 12c-6.83-0.87-73.7-6.12-92.88-7.62zM355.07 118.63a3 3 0 0 1-1.45-4.52c4.23-6.11 14.28-18.77 24.9-18.77 6 0 80 20 89 25 6.85 3.81 10.81 15.15 12.3 20.34a3 3 0 0 1-1.84 3.64c-5.64 2.07-19.56 6.57-30.46 5-12.25-1.74-76.52-24.92-92.45-30.69zM512.52 125.77a7.12 7.12 0 0 1 3.84-6.36c8.94-4.57 29-7.74 33.16-6.08 5 2 76 58 85 73 7.65 12.76 5.18 27.68 4.27 31.86a1.26 1.26 0 0 1-1.41 1c-4.86-0.68-23.9-3.63-30.86-8.85-7.67-5.76-87.13-77.78-93.58-83.62a1.27 1.27 0 0 1-0.42-0.94zM642.12 151.06a6.54 6.54 0 0 1 5.58-8.61c12.29-1.16 29.6-0.55 48.83 21.88 24 28 41 111 44 118 2.21 5.16-5.35 22.27-9.49 30.91a6.55 6.55 0 0 1-8.56 3.15c-8-3.51-22.36-13.15-33.95-39.06-14.09-31.47-38.45-102.71-46.41-126.27zM756.52 294.33c9-5 44 7 58 35s24 129 22 136-16 27-16 27-24 5-37-37-27-161-27-161zM335.31 222.66a2.51 2.51 0 0 1 1.42-4.11c19.86-3.91 84.12-18.21 87.79-18.21 4 0 28 0 37 9s-11 18-22 21-73 13-82 11c-6.68-1.49-17.23-12.9-22.21-18.68zM480.52 223.33c2.63-6.57 105 33 114 35s31 23 31 27-24 15-31 15-104-29-108-39-14-18-6-38zM592.72 311.62a5.41 5.41 0 0 1 7.56-3.56c21.4 10.13 95.4 45.44 102.24 52.28 6.61 6.61 24.15 36.45 30 46.6a5.41 5.41 0 0 1-1 6.68c-3.8 3.55-11.1 8.37-21 5.72-15-4-105-44-116-63-7.99-13.8-4.38-34.45-1.8-44.72z" p-id="2189" fill="#e1da2b"></path></svg>